<svg xmlns:dc="http://purl.org/dc/elements/1.1/" xmlns:cc="http://creativecommons.org/ns#" xmlns:rdf="http://www.w3.org/1999/02/22-rdf-syntax-ns#" xmlns:svg="http://www.w3.org/2000/svg" xmlns="http://www.w3.org/2000/svg" xmlns:sodipodi="http://sodipodi.sourceforge.net/DTD/sodipodi-0.dtd" xmlns:inkscape="http://www.inkscape.org/namespaces/inkscape" version="1.1" x="0px" y="0px" viewBox="0 0 100 125"><g transform="translate(0,-952.36218)"><path style="text-indent:0;text-transform:none;direction:ltr;block-progression:tb;baseline-shift:baseline;color:#000000;enable-background:accumulate;" d="m 14.644656,999.53373 c -2.338186,2.33827 -2.338189,6.14707 3e-6,8.48527 l 1.414213,1.4143 -0.707107,0.7071 c -2.72994,2.7298 -2.729929,7.1695 1.2e-5,9.8995 l 4.242614,4.2426 -3.535534,3.5355 c -0.771226,0.7713 -0.771223,2.0572 1.6e-5,2.8285 l 5.656857,5.6568 c 0.771264,0.7713 2.057184,0.7713 2.828461,10e-5 l 3.535532,-3.5356 4.242615,4.2426 c 2.729948,2.73 7.169568,2.7299 9.899513,0 l 0.707061,-0.7072 1.414238,1.4143 c 2.338187,2.3382 6.147123,2.3383 8.485284,10e-5 2.338187,-2.3383 2.338191,-6.1472 3e-5,-8.4853 l -10.606609,-10.6066 24.041597,-24.04173 10.606604,10.60663 c 2.338188,2.3382 6.147096,2.3382 8.485309,0 2.338161,-2.3382 2.338166,-6.1471 -2.1e-5,-8.48531 l -1.414239,-1.41426 0.707139,-0.70701 c 2.729919,-2.72997 2.729948,-7.16955 -2e-6,-9.89952 l -4.24264,-4.24263 3.535534,-3.53554 c 0.771242,-0.77124 0.771241,-2.05719 -10e-7,-2.82842 l -5.656866,-5.65687 c -0.771244,-0.77125 -2.057187,-0.77124 -2.828426,0 l -3.535535,3.53553 -4.24264,-4.24264 c -2.729925,-2.72992 -7.169568,-2.72992 -9.899496,0 l -0.707105,0.70711 -1.414215,-1.41421 c -2.338192,-2.3382 -6.14709,-2.33819 -8.485285,-1e-5 -2.338189,2.33819 -2.338186,6.14709 0,8.48528 l 10.606604,10.60661 -24.04165,24.04159 -10.606582,-10.60656 c -2.338192,-2.33819 -6.147093,-2.3382 -8.485283,-10e-6 z m 1.414213,1.41427 c 1.579181,-1.57924 4.077678,-1.57923 5.656857,0 l 29.698489,29.6984 c 1.579182,1.5792 1.579205,4.0778 5e-6,5.6569 -1.579174,1.5792 -4.077638,1.5793 -5.656821,10e-5 l -29.698528,-29.6986 c -1.579182,-1.5792 -1.579184,-4.0777 -2e-6,-5.6568 z m 32.526916,-32.52696 c 1.579181,-1.57918 4.07767,-1.57919 5.65685,-10e-6 l 29.698487,29.69848 c 1.579182,1.57918 1.579204,4.07769 5e-6,5.65689 -1.579174,1.5792 -4.077666,1.5792 -5.656823,1e-4 L 48.585785,974.07789 c -1.579184,-1.57918 -1.579182,-4.07767 0,-5.65685 z m -31.81982,43.13346 0.707107,-0.7071 24.041652,24.0417 -0.707111,0.7071 c -1.970908,1.971 -5.100133,1.971 -7.071053,0 l -16.970574,-16.9705 c -1.970927,-1.971 -1.970925,-5.1002 -2.1e-5,-7.0712 z m 41.719314,-41.71925 0.707106,-0.7071 c 1.970918,-1.97092 5.100148,-1.97093 7.071065,-10e-6 l 16.970558,16.97054 c 1.970957,1.97099 1.970956,5.10021 4.8e-5,7.07117 l -0.707137,0.70702 -24.04164,-24.04162 z m -41.012183,59.39705 3.535533,-3.5356 5.656857,5.6569 -3.535533,3.5355 -5.656857,-5.6568 z m 17.677664,-17.6777 24.041625,-24.04168 5.656879,5.65689 -24.041648,24.04159 -5.656856,-5.6568 z m 38.18376,-38.18381 3.535536,-3.53554 5.656866,5.65687 -3.535533,3.53553 -5.656869,-5.65686 z" fill="#FFFFFF" fill-opacity="1" stroke="none" marker="none" visibility="visible" display="inline" overflow="visible"/></g></svg>